<?xml version="1.0" encoding="utf-8"?>
<!-- Generator: Adobe Illustrator 16.0.4, SVG Export Plug-In . SVG Version: 6.00 Build 0)  -->
<!DOCTYPE svg PUBLIC "-//W3C//DTD SVG 1.1//EN" "http://www.w3.org/Graphics/SVG/1.1/DTD/svg11.dtd">
<svg version="1.1" id="Layer_1" xmlns="http://www.w3.org/2000/svg" xmlns:xlink="http://www.w3.org/1999/xlink" x="0px" y="0px"
	 width="53.082px" height="96.747px" viewBox="0 0 53.082 96.747" enable-background="new 0 0 53.082 96.747" xml:space="preserve">
<g>
	<g>
		<g>
			<g>
				<path fill="#808080" d="M32.568,20.114c0.154,0.154,0.154,0.402,0,0.557l-5.953,5.953c-0.154,0.154-0.402,0.154-0.556,0l0,0
					c-0.153-0.153-0.153-0.402,0-0.556l5.953-5.954C32.166,19.962,32.416,19.962,32.568,20.114L32.568,20.114z"/>
			</g>
		</g>
	</g>
	<g>
		<g>
			<g>
				<path fill="#808080" d="M20.116,20.122c0.153-0.151,0.403-0.151,0.556,0l5.953,5.956c0.152,0.151,0.152,0.401,0,0.554l0,0
					c-0.153,0.154-0.402,0.154-0.557,0l-5.952-5.951C19.961,20.526,19.961,20.276,20.116,20.122L20.116,20.122z"/>
			</g>
		</g>
	</g>
</g>
<g>
	<g>
		<g>
			<g>
				<path fill="#808080" d="M20.513,76.633c-0.154-0.154-0.154-0.402,0-0.557l5.952-5.953c0.154-0.154,0.402-0.154,0.557,0l0,0
					c0.153,0.151,0.153,0.4,0,0.556l-5.953,5.954C20.916,76.786,20.667,76.786,20.513,76.633L20.513,76.633z"/>
			</g>
		</g>
	</g>
	<g>
		<g>
			<g>
				<path fill="#808080" d="M32.964,76.625c-0.151,0.149-0.401,0.149-0.557,0l-5.952-5.957c-0.152-0.15-0.152-0.4,0-0.553l0,0
					c0.153-0.154,0.402-0.154,0.557,0l5.951,5.949C33.121,76.221,33.121,76.471,32.964,76.625L32.964,76.625z"/>
			</g>
		</g>
	</g>
</g>
</svg>
