<?xml version="1.0" encoding="utf-8"?>
<!-- Generator: Adobe Illustrator 16.0.4, SVG Export Plug-In . SVG Version: 6.00 Build 0)  -->
<!DOCTYPE svg PUBLIC "-//W3C//DTD SVG 1.1//EN" "http://www.w3.org/Graphics/SVG/1.1/DTD/svg11.dtd">
<svg version="1.1" id="Layer_1" xmlns="http://www.w3.org/2000/svg" xmlns:xlink="http://www.w3.org/1999/xlink" x="0px" y="0px"
	 width="19.967px" height="19.879px" viewBox="0 0 19.967 19.879" enable-background="new 0 0 19.967 19.879" xml:space="preserve">
<g>
	<g>
		<g>
			<g>
				<path fill="#515151" d="M5.521,5.465c0.033,0.16-0.068,0.312-0.228,0.344l-4.16,0.617C0.975,6.459,0.822,6.357,0.79,6.198l0,0
					c-0.031-0.157,0.07-0.31,0.227-0.343l4.163-0.617C5.336,5.207,5.489,5.309,5.521,5.465L5.521,5.465z"/>
			</g>
		</g>
		<g>
			<g>
				<path fill="#515151" d="M0.236,1.594c0.157-0.032,0.31,0.069,0.343,0.227l0.783,4.271C1.395,6.25,1.293,6.403,1.134,6.436l0,0
					c-0.157,0.031-0.311-0.07-0.342-0.227L0.005,1.936C-0.025,1.778,0.076,1.626,0.236,1.594L0.236,1.594z"/>
			</g>
		</g>
	</g>
</g>
<g>
	<g>
		<g>
			<g>
				<path fill="#515151" d="M14.245,14.898c-0.033-0.161,0.068-0.313,0.228-0.345l4.16-0.617c0.158-0.033,0.311,0.068,0.344,0.229
					l0,0c0.031,0.156-0.07,0.309-0.227,0.342l-4.163,0.617C14.429,15.155,14.276,15.054,14.245,14.898L14.245,14.898z"/>
			</g>
		</g>
		<g>
			<g>
				<path fill="#515151" d="M19.53,18.769c-0.157,0.033-0.31-0.068-0.343-0.227l-0.783-4.271c-0.033-0.158,0.068-0.311,0.227-0.344
					l0,0c0.158-0.031,0.311,0.07,0.343,0.227l0.786,4.273C19.791,18.585,19.69,18.737,19.53,18.769L19.53,18.769z"/>
			</g>
		</g>
	</g>
</g>
<path fill="none" stroke="#515151" stroke-width="0.75" stroke-miterlimit="10" d="M18.585,14.216
	c-1.569,3.136-4.812,5.288-8.557,5.288c-5.282,0-9.565-4.281-9.565-9.564"/>
<path fill="none" stroke="#515151" stroke-width="0.75" stroke-miterlimit="10" d="M19.592,9.939c0-5.283-4.282-9.564-9.564-9.564
	c-3.875,0-7.213,2.305-8.715,5.618"/>
</svg>
